<?xml version="1.0"?>

<svg xmlns:xlink="http://www.w3.org/1999/xlink" height="842" width="595" viewBox="0 0 595 842">
  <defs>
    <style type="text/css"><![CDATA[
.p0 { stroke:none;fill:#000000; }
.p1 { stroke:none;fill:#fd8e07; }
.p2 { stroke:none;fill:#fdcc03; }
]]></style>
  </defs>
  <g transform="matrix(1 0 0 -1 0 842)" id="page-1" xml:space="preserve">
<path d="M501.9150 -662.8540C491.1348 -660.0742 484.2187 -659.5361 480.0215 -659.7998C478.6816 -659.8843 477.6201 -660.0454 476.7959 -660.2236C462.8271 -669.5771 417.4297 -694.8955 356.4746 -677.4170C330.9512 -670.0981 307.9951 -659.3159 290.9878 -650.1289C287.8354 -648.4258 284.8892 -646.7783 282.1675 -645.2173C282.1675 -645.2173 279.6309 -646.1860 279.6309 -646.1860C279.5571 -646.2158 267.1851 -651.3120 237.1958 -650.2598C229.2949 -649.9829 218.5742 -647.2612 209.8643 -644.6260C201.1372 -641.9858 194.2480 -639.3682 194.1641 -639.2671C194.1470 -639.2471 193.5439 -638.5220 192.9941 -637.3462C192.4438 -636.1719 191.9331 -634.5181 192.1421 -632.6572C192.2207 -631.9541 192.2939 -631.3613 192.3608 -630.8486C171.9126 -623.3506 155.7310 -615.4932 155.7310 -615.4932C155.7310 -615.4932 155.4619 -614.1108 155.2661 -612.8379C155.0791 -611.6182 154.8882 -610.1133 155.0132 -609.4629C155.5298 -606.7690 159.6758 -602.7402 162.8643 -600.2720C164.9341 -598.6690 168.5230 -597.0269 171.5439 -595.7969C174.5859 -594.5591 177.2852 -593.6592 177.2852 -593.6592C177.2852 -593.6592 182.2261 -595.3662 189.9819 -597.0928C197.7471 -598.8232 208.4922 -600.6289 220.4131 -600.9341C231.7998 -601.2261 238.8848 -599.9512 243.1060 -598.6201C245.2158 -597.9551 246.6099 -597.2759 247.4668 -596.7720C248.2861 -596.2900 249.8481 -595.5034 249.8623 -595.4321C250.2017 -593.6987 250.6260 -591.9336 251.1401 -590.1411C253.7837 -580.9233 258.0601 -573.5166 263.0679 -568.3027C263.0679 -568.3027 263.2085 -568.1509 263.0791 -567.4619C263.0791 -567.4619 262.6240 -563.2061 260.4521 -557.6460C258.2710 -552.0649 254.3521 -545.0278 247.3921 -539.1690C241.1519 -533.9150 233.2939 -529.7881 226.9790 -526.9697C220.6772 -524.1582 215.8501 -522.6338 215.5098 -522.3081C215.3701 -522.1479 215.1899 -521.9121 215.0210 -521.6001C214.6821 -520.9722 214.3911 -520.0449 214.5527 -518.7739C214.5527 -518.7739 221.7148 -500.9883 221.7148 -500.9883C225.9761 -500.7617 231.8872 -500.6519 252.0112 -506.4228C272.1660 -512.2021 285.5288 -519.5518 299.9043 -528.8018C309.9141 -535.2441 318.1397 -543.2529 323.8613 -549.6460C329.5918 -556.0488 332.8506 -560.8892 332.9541 -561.2051C332.9619 -561.2363 332.9697 -561.2788 332.9775 -561.3144C349.0635 -562.9038 367.5508 -565.8462 386.3535 -571.2383C423.2480 -581.8169 447.0234 -603.1108 461.5713 -621.7578C471.1768 -634.0698 476.7607 -645.2270 479.4492 -651.3970C480.0440 -651.9658 480.8291 -652.6328 481.8643 -653.3740C485.2842 -655.8218 491.4355 -659.0850 502.0615 -662.3579C502.0615 -662.3579 501.9150 -662.8540 501.9150 -662.8540Z" transform="matrix(1.000 0.000 0.000 -1.00 0.000 0.000)" class="p0" />
<path d="M238.4409 -551.7178C227.8023 -544.3525 220.0010 -546.9497 216.5083 -553.5757C213.1314 -559.9824 192.4770 -552.7505 182.6269 -550.1538C172.7759 -547.5557 71.6382 -524.8296 71.6382 -524.8296C71.6382 -524.8296 168.6929 -558.9858 182.5151 -564.7988C197.2974 -571.0156 203.5161 -575.4458 207.7573 -581.8594C212.8623 -589.5796 220.5972 -594.0508 229.7261 -596.0635C235.7993 -597.4028 241.5933 -594.2827 244.7910 -592.0435C244.9429 -590.7485 245.3257 -589.4424 245.5566 -588.1318C246.1147 -584.9648 246.9893 -574.4458 252.9082 -567.2427C252.9082 -567.2427 248.4531 -558.6484 238.4409 -551.7178Z" transform="matrix(1.000 0.000 0.000 -1.00 0.000 0.000)" class="p0" />
<path d="M434.1875 -670.8921C434.1875 -670.8921 437.0225 -666.5176 437.6719 -662.0088C437.7139 -661.7173 438.5889 -657.5088 436.9736 -651.4985C436.2510 -648.8096 434.9639 -646.6387 434.9639 -646.6387C434.9639 -646.6387 437.8809 -648.1338 440.7412 -652.5913C442.0147 -654.5752 443.2217 -657.9058 443.4639 -658.2432C443.7139 -658.5918 457.0479 -658.4253 458.3809 -658.3838C459.3818 -658.3525 473.1455 -657.8208 478.8018 -656.4932C479.4883 -656.3320 473.7549 -661.8213 463.3379 -665.4253C455.4170 -668.1655 448.7031 -669.6924 434.1875 -670.8921Z" transform="matrix(1.000 0.000 0.000 -1.00 0.000 0.000)" class="p1" />
<path d="M206.7602 -629.4473C187.4712 -623.9160 157.2773 -612.3721 157.2773 -612.3721C157.2773 -612.3721 184.4981 -628.0894 212.2583 -636.0493C242.2544 -644.6499 261.3276 -645.8013 280.8237 -643.9741C300.1602 -642.1611 310.7852 -637.7529 312.7773 -630.8081C314.8105 -623.7183 300.1992 -608.0933 270.9956 -598.8701C261.7632 -595.9541 252.1421 -596.1382 252.1421 -596.1382C252.1421 -596.1382 258.2563 -597.0840 268.1597 -600.2021C277.0874 -603.0132 292.7192 -611.2100 297.7270 -615.3179C299.7305 -616.9609 302.2461 -619.1279 304.1621 -621.2012C306.1660 -623.3731 307.2383 -625.1641 306.9551 -626.1528C304.7441 -633.8608 250.0366 -641.8560 206.7602 -629.4473" transform="matrix(1.000 0.000 0.000 -1.00 0.000 0.000)" class="p1" />
<path fill-rule="evenodd" d="M333.2617 -561.3682C333.2617 -561.3682 330.9043 -558.2261 330.9043 -558.2261C328.8906 -557.9180 326.0059 -557.6191 321.4434 -557.4741C316.8750 -557.3291 311.0254 -557.0649 303.5527 -557.3691C286.2729 -558.0713 271.0327 -564.6660 271.0327 -564.6660C271.0327 -564.6660 275.3667 -563.3643 282.1870 -562.1382C289.0151 -560.9111 298.3340 -559.7822 308.2969 -560.0689C324.9277 -560.5478 333.2617 -561.3682 333.2617 -561.3682" transform="matrix(1.000 0.000 0.000 -1.00 0.000 0.000)" class="p1" />
<path d="M253.0679 -567.4111C251.6284 -565.2173 248.8550 -562.1690 243.5435 -558.9819C235.5718 -554.1992 230.8550 -556.2202 229.0352 -562.3530C226.5972 -570.5742 212.6602 -563.9150 201.2925 -560.8608C183.1001 -555.9741 122.0913 -539.1138 122.0913 -539.1138C122.0913 -539.1138 183.8403 -559.2231 201.7861 -567.6958C214.9165 -573.8950 209.2270 -586.8814 218.3574 -580.5029C221.7632 -578.1240 231.5757 -576.3643 237.0737 -582.9263C240.4526 -586.9580 243.3071 -588.6509 245.3530 -589.3242C245.3530 -589.3242 245.5269 -588.3003 245.5269 -588.3003C246.8980 -580.5181 249.5161 -573.3804 253.0679 -567.4111" transform="matrix(1.000 0.000 0.000 -1.00 0.000 0.000)" class="p1" />
<path d="M350.2705 -647.1304C341.7041 -644.9409 319.3428 -638.7637 312.9766 -636.0288C312.9766 -636.0288 323.5264 -645.5620 347.5810 -655.8711C363.5205 -662.7021 377.4639 -665.3745 378.4228 -665.5664C378.5352 -665.5889 377.7383 -664.0508 377.1836 -660.6113C376.8799 -658.7300 377.0361 -655.0015 377.4570 -652.7852C377.4873 -652.6260 363.9580 -650.6289 350.2705 -647.1304Z" transform="matrix(1.000 0.000 0.000 -1.00 0.000 0.000)" class="p1" />
<path d="M247.1690 -581.3408C246.8481 -582.4580 246.5527 -583.5942 246.2861 -584.7481C244.8462 -585.1079 243.0732 -584.7749 241.1348 -582.7100C235.2109 -576.3979 230.6519 -575.4868 226.8608 -574.6528C224.0190 -574.0293 209.9893 -566.6162 209.9893 -566.6162C209.9893 -566.6162 216.9971 -568.9170 221.6431 -569.3740C235.9731 -570.7813 236.1362 -561.2451 241.9609 -561.2148C246.9248 -561.1899 250.1250 -566.1050 251.8091 -569.7319C251.8091 -569.7319 248.1772 -577.8320 247.1690 -581.3408Z" transform="matrix(1.000 0.000 0.000 -1.00 0.000 0.000)" class="p2" />
<path d="M436.8555 -662.4141C437.5547 -649.0679 425.0078 -637.9258 409.3486 -637.1050C393.6904 -636.2852 380.0459 -646.0552 379.3457 -659.4009C378.6475 -672.7481 391.1943 -683.8901 406.8535 -684.7100C422.5117 -685.5312 436.1553 -675.7612 436.8555 -662.4141" transform="matrix(1.000 0.000 0.000 -1.00 0.000 0.000)" class="p2" />
</g>
</svg>